# xmcd
#
# Track frame offsets:
#	150
#	18197
#	37240
#	55223
#	71744
#	89122
#	107775
#	126632
#	146009
#	160694
#	177177
#	197836
#	213276
#	234660
#	253509
#	270434
#	284016
#	301320
#	317743
#	335114
#
# Disc length: 4705 seconds
#
# Revision: 2
# Processed by: cddbd v1.5.2PL0 Copyright (c) Steve Scherf et al.
# Submitted via: audiograbber 1.83.01
#
DISCID=3a125f14
DTITLE=Various Artist - 101 R&B Hits [Disc 4]
DYEAR=2012
DGENRE=R&B
TTITLE0=TLC - No Scrubs (Main Mix)
TTITLE1=Ginuwine - Pony (Single Version)
TTITLE2=DJ Jazzy Jeff and The Fresh Prince - Summertime (Single Edit)
TTITLE3=Cee-Lo Green - Closet Freak (Radio Edit)
TTITLE4=Shaggy - Boombastic (7'' Original Edit)
TTITLE5=C+C Music Factory - Do You Wanna Get Funky?
TTITLE6=Ini Kamoze - Here Comes The Hotstepper
TTITLE7=Zhane - Hey Mr. D.J.
TTITLE8=Kriss Kross - Jump
TTITLE9=Soul II Soul featuring Caron Wheeler - Keep On Movin' (Edit)
TTITLE10=Arrested Development - Tennessee
TTITLE11=Gang Starr - Lovesick
TTITLE12=Vanilla Ice - Play That Funky Music
TTITLE13=MC Hammer - Pray (Radio Edit)
TTITLE14=SWV - Right Here (7'' Radio Edit)
TTITLE15=Riff - White Men Can't Jump (No-Rap Version)
TTITLE16=Baha Men - You All Dat (Berman Brothers Remix)
TTITLE17=Monie Love featuring True Image - It's A Shame (My Sister)
TTITLE18=Paula Abdul - Straight Up
TTITLE19=Maxi Priest featuring Shaggy - That Girl
EXTD=
EXTT0=
EXTT1=
EXTT2=
EXTT3=
EXTT4=
EXTT5=
EXTT6=
EXTT7=
EXTT8=
EXTT9=
EXTT10=
EXTT11=
EXTT12=
EXTT13=
EXTT14=
EXTT15=
EXTT16=
EXTT17=
EXTT18=
EXTT19=
PLAYORDER=
